<?xml version="1.0" standalone="no"?>
<!DOCTYPE svg PUBLIC "-//W3C//DTD SVG 20010904//EN"
 "http://www.w3.org/TR/2001/REC-SVG-20010904/DTD/svg10.dtd">
<svg version="1.0" xmlns="http://www.w3.org/2000/svg"
 width="384.000000pt" height="384.000000pt" viewBox="0 0 384.000000 384.000000"
 preserveAspectRatio="xMidYMid meet">
<metadata>
Created by potrace 1.11, written by Peter Selinger 2001-2013
</metadata>
<g transform="translate(0.000000,384.000000) scale(0.100000,-0.100000)"
fill="#000000" stroke="none">
<path d="M757 3830 c-225 -38 -436 -166 -572 -345 -84 -112 -146 -251 -172
-390 -10 -48 -11 -2269 -1 -2340 7 -62 49 -188 85 -258 119 -236 328 -402 593
-471 l95 -25 1150 2 c633 1 1159 5 1170 9 11 3 40 11 65 17 58 15 68 19 174
71 231 112 400 322 468 580 l23 85 0 1135 c0 624 -3 1158 -7 1185 -7 62 -49
188 -85 258 -119 236 -329 403 -593 471 l-95 25 -1125 -1 c-619 0 -1147 -4
-1173 -8z"/>
</g>
</svg>
