<svg width="32" height="32" viewBox="0 0 512 512" fill="none" xmlns="http://www.w3.org/2000/svg">
<path d="M376.967 136.783L406.715 124.844L445.138 191.226L420.011 210.766C405.377 222.147 399.386 239.855 399.386 256C399.386 272.365 405.606 289.875 420.095 301.254L444.928 320.757L406.495 387.156L376.86 375.262C359.808 368.419 341.726 371.779 327.613 380.009C313.664 388.143 301.338 402.205 298.737 420.546L294.275 452H217.505L213.059 420.658C210.452 402.279 198.177 388.183 184.185 379.972C170.088 371.698 152.008 368.404 135.033 375.217L105.285 387.156L66.8621 320.774L91.9895 301.234C106.624 289.853 112.614 272.144 112.614 256C112.614 240.222 107.291 222.324 92.3997 210.743L67.2949 191.22L105.512 124.847L135.29 136.798C152.18 143.576 170.153 140.458 184.311 132.118C198.263 123.9 210.67 109.733 213.284 91.3069L217.725 60H294.495L298.941 91.3418C301.548 109.721 313.823 123.817 327.815 132.028C341.912 140.302 359.992 143.596 376.967 136.783Z" stroke="#708CE0" stroke-width="30"/>
<circle cx="256" cy="256" r="49.7513" stroke="#708CE0" stroke-width="30"/>
</svg>
