<svg width="300" height="263" viewBox="0 0 300 263" fill="none" xmlns="http://www.w3.org/2000/svg">
<path fill-rule="evenodd" clip-rule="evenodd" d="M187 128.262C202.106 120.106 219.583 118.052 235.99 120.232L236.517 116.267C220.11 114.086 202.495 115.982 187 123.751V128.262ZM168.492 143H168V137.633C161.698 144.097 156.243 152.134 152.016 161.951L155.69 163.532C159.163 155.466 163.506 148.664 168.492 143Z" fill="#384C89"/>
<circle cx="207.413" cy="89.9549" r="17.2267" stroke="#384C89" stroke-width="4"/>
<path d="M183.44 67.2949C183.44 71.7592 179.54 75.5949 174.453 75.5949C169.367 75.5949 165.467 71.7592 165.467 67.2949C165.467 62.8305 169.367 58.9949 174.453 58.9949C179.54 58.9949 183.44 62.8305 183.44 67.2949Z" stroke="#384C89" stroke-width="4"/>
<path d="M207.413 95.4482V131.155" stroke="#384C89" stroke-width="4" stroke-linecap="round"/>
<path d="M218.4 138.021C209.853 130.745 205.996 130.649 197.8 138.021" stroke="#384C89" stroke-width="4" stroke-linecap="round"/>
<path fill-rule="evenodd" clip-rule="evenodd" d="M235 165.982L235 46.8882C235 46.3359 234.552 45.8882 234 45.8882L156.107 45.8882C155.554 45.8882 155.107 46.3359 155.107 46.8882L155.107 91H151.107L151.107 46.8882C151.107 44.1268 153.345 41.8882 156.107 41.8882L234 41.8882C236.761 41.8882 239 44.1268 239 46.8882L239 165.982C239 168.743 236.761 170.982 234 170.982H168V166.982H234C234.552 166.982 235 166.534 235 165.982ZM155.107 163L155.107 109H151.107L151.107 163H155.107Z" fill="#5E72AD"/>
<path d="M185.44 43.2616L193.947 27.557C194.732 26.1069 196.836 26.1771 197.523 27.6762L204.667 43.2616" stroke="#5E72AD" stroke-width="4" stroke-linecap="round" stroke-linejoin="round"/>
<rect x="128.79" y="189.736" width="32.9594" height="12.9275" rx="6.46375" transform="rotate(-135 128.79 189.736)" fill="#CA8870" stroke="#222324" stroke-width="2"/>
<rect x="137.021" y="185.74" width="33.4449" height="13.6043" rx="6.80214" transform="rotate(-119.821 137.021 185.74)" fill="#CA8870" stroke="#222324" stroke-width="2"/>
<path d="M169.251 156.295C162.402 163.086 149.441 167.919 137.035 170.007C130.856 171.047 124.886 171.393 119.975 170.981C114.999 170.563 111.341 169.385 109.536 167.595C107.733 165.807 106.546 162.185 106.125 157.254C105.71 152.387 106.059 146.47 107.108 140.344C109.213 128.046 114.086 115.197 120.934 108.408C134.699 94.7585 156.661 94.4718 169.984 107.682C183.301 120.888 183.012 142.65 169.251 156.295Z" fill="#5E72AD" stroke="#222324" stroke-width="2"/>
<path d="M160.335 145.199C152.682 152.852 140.274 152.852 132.621 145.199C124.968 137.546 124.968 125.138 132.621 117.485C140.274 109.832 152.682 109.832 160.335 117.485C167.988 125.138 167.988 137.546 160.335 145.199Z" fill="#384C89" stroke="#222324" stroke-width="2"/>
<path d="M58.75 204.628L74.5553 147.729C75.4108 144.65 77.6867 142.165 80.6793 141.042L108.877 130.468L105.443 149.695L100.796 153.181C100.267 153.578 99.968 154.211 99.998 154.871L100.434 164.471C100.513 166.195 102.592 167.017 103.828 165.812L120.494 149.574C124.332 145.834 130.462 145.874 134.251 149.663V149.663C137.786 153.197 138.091 158.826 134.959 162.722L114.535 188.127C113.096 189.918 112.364 192.154 112.179 194.444C111.085 207.93 103.084 219.92 84.1567 236.902L58.75 204.628Z" fill="#CA8870"/>
<path d="M111.182 194.363C110.136 207.259 102.596 218.877 84.2814 235.444L59.8491 204.408L75.5189 147.997C76.2887 145.225 78.3371 142.989 81.0304 141.979L107.584 132.021L104.528 149.131L100.196 152.381C99.4021 152.976 98.954 153.926 98.9991 154.917L99.4354 164.516C99.553 167.102 102.672 168.335 104.526 166.528L121.192 150.29C124.638 146.932 130.142 146.968 133.544 150.37C136.718 153.544 136.991 158.598 134.18 162.096L113.756 187.5C112.164 189.481 111.38 191.922 111.182 194.363Z" stroke="#222324" stroke-width="2"/>
<path d="M100.162 104.195C87.5949 99.7427 69.9011 105.431 62.627 119.986" stroke="#505050" stroke-width="2" stroke-linecap="round"/>
<path d="M104.494 115.763C91.9272 111.311 74.2334 116.999 66.9593 131.554" stroke="#505050" stroke-width="2" stroke-linecap="round"/>
<path d="M123.335 151.897C125.678 149.554 129.477 149.554 131.82 151.897L132.171 152.249C134.515 154.592 134.515 158.391 132.171 160.734L131.527 161.378C130.356 162.549 128.456 162.549 127.285 161.378L122.691 156.784C121.519 155.612 121.519 153.713 122.691 152.541L123.335 151.897Z" fill="#EEB59C"/>
<path d="M84.4573 148.091C82.468 149.142 81.6968 150.361 80.7234 153.729" stroke="#222324" stroke-width="2" stroke-linecap="round" stroke-linejoin="round"/>
<path d="M119.035 170.957C118.745 168.726 117.873 167.577 115.057 165.488" stroke="#222324" stroke-width="2" stroke-linecap="round" stroke-linejoin="round"/>
</svg>
