<svg width="150" height="150" viewBox="0 0 150 150" fill="none" xmlns="http://www.w3.org/2000/svg">
<path d="M9.34239 92.4491C4.34312 83.3315 2.81233 73.9826 9.34239 64.0964" stroke="#505050" stroke-width="2" stroke-linecap="round"/>
<path d="M17.7452 92.4491C12.7459 83.3315 11.2152 73.9826 17.7452 64.0964" stroke="#505050" stroke-width="2" stroke-linecap="round"/>
<path d="M133.087 92.4491C138.086 83.3315 139.617 73.9826 133.087 64.0964" stroke="#505050" stroke-width="2" stroke-linecap="round"/>
<path d="M140.682 92.4491C145.681 83.3315 147.212 73.9826 140.682 64.0964" stroke="#505050" stroke-width="2" stroke-linecap="round"/>
<path d="M50.2126 54.6007H58.5491V77.7156H50.2126V54.6007ZM77.7544 32.145C77.7544 21.6089 90.7363 21.6366 90.7363 32.3845L90.9643 79.8698L77.7544 32.145ZM64.831 35.5822L64.748 30.1575V26.4438C64.9526 13.9647 77.8568 14.9876 77.7545 26.6484L77.8567 68.6885L64.831 35.5822ZM51.8492 55.4191V35.4374C52.0952 25.2261 61.3129 24.0133 64.0637 31.0872C64.5473 32.3307 64.831 33.8303 64.831 35.5822V70.9497L51.8492 55.4191ZM82.196 89.9935C90.3961 77.7614 99.7247 73.6404 105.837 70.093C113.637 66.6641 119.223 74.375 115.147 78.6689C101.979 89.0774 94.7852 98.2353 94.7852 107.6C94.7852 135.246 38.8513 136.236 38.8513 108.849V48.4756C38.7201 45.8817 39.318 43.8616 40.3209 42.4256C43.7365 37.535 51.8492 39.418 51.8492 48.4756V73.916L82.196 89.9935ZM52.0971 33.0268H90.8129V95.8261H52.0971V33.0268Z" fill="#EEB59C"/>
<path d="M54.2966 57.8741H62.633V80.989H54.2966V57.8741ZM81.8384 35.4184C81.8384 24.8823 94.8202 24.9099 94.8202 35.6579L87.9065 82.3309L81.8384 35.4184ZM68.9151 38.8555L68.832 33.4308V29.7171C69.0366 17.238 81.9408 18.2609 81.8385 29.9217L81.9407 71.9618L68.9151 38.8555ZM55.9331 58.6924V38.7108C56.1792 28.4994 65.3969 27.2866 68.1477 34.3605C68.6313 35.604 68.9151 37.1037 68.9151 38.8555L68.915 74.2231L55.9331 58.6924ZM94.3968 85.4296C97.4896 83.11 103.675 77.1893 109.921 73.3663C117.721 69.9374 123.307 77.6483 119.231 81.9423C106.063 92.3507 98.8692 101.509 98.8692 110.874C98.8692 138.52 42.9353 139.509 42.9353 112.123V51.7489C42.804 49.155 43.4019 47.135 44.4049 45.6989C47.8205 40.8083 55.9331 42.6913 55.9331 51.7489C55.9331 51.7489 97.4564 64.6197 89.7576 80.0172C87.438 84.6564 90.5308 88.3291 94.3968 85.4296ZM56.1811 36.3002H94.8969L90.5308 79.4918L56.1811 99.3471V36.3002Z" fill="#CA8870"/>
<path d="M86.0189 34.8759H79.5748V40.8085H86.0189V34.8759Z" fill="#CA8870"/>
<path d="M76.4302 20.9143C77.2596 22.3782 77.775 24.2918 77.7544 26.648L77.7667 31.8247C77.8519 28.559 79.206 26.3531 81.0152 25.2104C80.0351 22.8096 78.2948 21.3584 76.4298 20.9143H76.4302ZM89.6748 27.7308C90.3318 28.9564 90.7361 30.5025 90.7361 32.3849L90.7392 33.0266H90.8126V48.3792L90.9637 79.8694L90.8126 79.3236V80.006C92.2312 78.7367 93.6385 77.6274 95.0168 76.6338L94.897 51.6533V36.2998H94.8235L94.8204 35.6581C94.8204 31.0322 92.4144 28.3975 89.6749 27.7308H89.6748ZM63.5588 30.0155C63.7433 30.3499 63.9148 30.7039 64.0639 31.0871C64.2927 31.6757 64.4752 32.3237 64.6056 33.0266H64.7918L64.7519 30.4342C64.3643 30.2465 63.9654 30.1061 63.5589 30.0155H63.5588ZM77.768 32.1939L77.7695 33.0266H77.9981L77.768 32.1939ZM50.6458 43.2385C51.3885 44.5853 51.8493 46.3262 51.8493 48.476V43.674C51.4596 43.4822 51.0558 43.3387 50.6458 43.2385ZM115.876 72.8139C116.858 74.6923 116.776 76.9531 115.147 78.6691C101.98 89.0775 94.7852 98.2356 94.7852 107.6C94.7852 128.258 63.5586 134.03 47.7698 124.204C61.3464 138.274 98.8695 133.519 98.8695 110.874C98.8695 101.509 106.063 92.3507 119.23 81.9423C122.145 78.8721 120.119 74.0569 115.876 72.8139Z" fill="#955B52"/>
<path d="M77.747 31.6573C77.747 21.1212 90.7288 21.1488 90.7288 31.8968L90.9568 79.382M64.8236 35.0944L64.7406 29.6697V25.956C64.9451 13.4769 77.8493 14.4998 77.747 26.1606L77.8493 68.2007M64.8236 35.0944C64.8236 33.3426 64.5398 31.8429 64.0562 30.5994C61.3055 23.5255 52.0878 24.7383 51.8417 34.9497V52.1821M64.8236 35.0944L64.8235 70.4619M82.1885 89.5057C90.3887 77.2736 99.7172 73.1526 105.829 69.6052C113.629 66.1763 119.216 73.8872 115.139 78.1812C101.972 88.5896 94.7777 97.7475 94.7777 107.112C94.7777 134.759 38.8439 135.748 38.8439 108.362V47.9878C38.7126 45.3939 39.3105 43.3738 40.3134 41.9378C43.729 37.0472 51.8417 38.9302 51.8417 47.9878V73.4282" stroke="#222324" stroke-width="2" stroke-linecap="round"/>
</svg>
