<svg width="32" height="32" viewBox="0 0 512 512" fill="none" xmlns="http://www.w3.org/2000/svg">
<path d="M43.9998 379.315L469 379.315L469 117.157L43.9998 117.157L43.9998 379.315Z" stroke="#708CE0" stroke-width="30" stroke-linecap="round" stroke-linejoin="round"/>
<path d="M224.171 311.14L208.751 301.384C194.693 292.49 177.131 291.17 161.901 297.864L55.1717 344.77C49.4705 347.276 45.7893 352.915 45.7893 359.142C45.7893 367.813 52.8179 374.841 61.4881 374.841H415.421C443.035 374.841 465.421 352.455 465.421 324.841V317.604C465.421 301.571 457.732 286.51 444.747 277.107L416.135 256.388C399.012 243.989 375.941 243.698 358.512 255.663L279.201 310.108C262.714 321.425 241.07 321.831 224.171 311.14Z" stroke="#708CE0" stroke-width="30" stroke-linecap="round" stroke-linejoin="round"/>
<circle cx="128.105" cy="186.052" r="33.1053" fill="#708CE0"/>
<path d="M241.272 383.211L186.59 477.924" stroke="#708CE0" stroke-width="30" stroke-linecap="round" stroke-linejoin="round"/>
<path d="M325.718 477.924L271.036 383.211" stroke="#708CE0" stroke-width="30" stroke-linecap="round" stroke-linejoin="round"/>
</svg>
